<svg xmlns="http://www.w3.org/2000/svg" viewBox="0 0 871.7 1063.31"><defs><style>.cls-1,.cls-2{fill:#fff;}.cls-2{stroke:#fff;stroke-linejoin:round;stroke-width:20px;}.cls-3{fill:#010101;}.cls-4{fill:#f4de17;}</style></defs><title>Asset 1</title><g id="Layer_2" data-name="Layer 2"><g id="Layer_1-2" data-name="Layer 1"><path class="cls-1" d="M541.87,822.05c-23,0-46.78-17.68-54.19-40.28,0-.13-.08-.26-.12-.39L486,776.27a4.09,4.09,0,0,0-2.46-1.22H388.35a4.5,4.5,0,0,0-2.67,1.37l-1.6,5.07c-7.62,23.26-30.91,40.56-54.18,40.56H209.36c-22.91,0-46.72-17.84-54.19-40.63L117.95,666.78c-7.36-22.44,1.57-49.81,20.77-63.65l3.42-2.46A6.63,6.63,0,0,0,143,598l-30.08-91.61a4.62,4.62,0,0,0-2.49-1.33h-2.66c-23.46,0-46.76-17.26-54.19-39.93L16.35,350.86C9,328.49,17.93,301.14,37.12,287.31l97.48-70.25a59.24,59.24,0,0,1,66.85,0l1.74,1.25a6.46,6.46,0,0,0,3.55,0l77.13-55.68a6.77,6.77,0,0,0,1-2.88l-.61-1.86c-7.35-22.4,1.57-49.73,20.76-63.56l97.48-70.24a59.23,59.23,0,0,1,66.85,0l97.47,70.12c19.2,13.81,28.13,41.15,20.78,63.58l-.62,1.89a6.74,6.74,0,0,0,.95,2.9l77.25,55.73a6.42,6.42,0,0,0,3.55,0l1.81-1.28c9.1-6.56,20.92-10.19,33.2-10.19a57.62,57.62,0,0,1,33.47,10.34l97.48,70.23c19.22,13.82,28.15,41.24,20.77,63.76l-37.21,114c-7.43,22.68-30.73,39.94-54.19,39.94h-2.71a4.59,4.59,0,0,0-2.47,1.32l-30.06,91.2a6.44,6.44,0,0,0,1,2.86l3.64,2.71c19,13.85,27.76,41.14,20.43,63.51L716.62,781.33c-7.48,22.86-31.29,40.72-54.21,40.72Z"/><path class="cls-1" d="M435.9,22.77A48.43,48.43,0,0,1,464,31.39l97.46,70.12c16.14,11.61,23.65,34.58,17.47,53.43l-.72,2.21c-1.22,3.71.93,10.26,4.09,12.55l77.81,56.13a14,14,0,0,0,13.5,0l2.07-1.46c7.61-5.48,17.58-8.53,28-8.53a48.52,48.52,0,0,1,28.19,8.64l97.48,70.22c15.89,11.43,23.56,35,17.46,53.61l-37.21,114c-6.19,18.89-25.79,33.73-45.59,33.73h-2.78c-4.41,0-9.74,3.69-10.85,7.06l-30.31,92c-1.22,3.74.93,10.22,4.12,12.51l3.8,2.83c15.74,11.46,23.31,34.86,17.22,53.43L708,778.56c-6.27,19.14-26.3,34.49-45.61,34.49H541.87c-19.38,0-39.41-15.19-45.6-34.07l-1.8-6.51c-1.23-3.28-6.43-7.42-10.77-7.42H388.05c-3.88,0-9.67,4.07-10.86,7.72l-1.7,5.69c-6.31,19.25-26.32,34.59-45.59,34.59H209.36c-19.31,0-39.34-15.34-45.6-34.43L126.55,664c-6.17-18.83,1.33-41.91,17.46-53.53l3.76-2.7c3-2.17,5.12-8.62,3.93-12.24l-30.35-92.41c-1.1-3.37-6.44-7.06-10.86-7.06h-2.73c-19.8,0-39.41-14.84-45.6-33.73L24.95,348.06c-6.16-18.75,1.34-41.8,17.45-53.41l97.48-70.25a50.21,50.21,0,0,1,56.29,0l2.06,1.48a14,14,0,0,0,13.49,0l77.69-56.08c3.16-2.28,5.31-8.84,4.1-12.52l-.71-2.17c-6.17-18.83,1.32-41.8,17.45-53.42l97.48-70.24a48.38,48.38,0,0,1,28.16-8.64m0-18.08a66.58,66.58,0,0,0-38.74,12.06L299.69,87a67.51,67.51,0,0,0-24.87,71l-69.89,50.45a68.4,68.4,0,0,0-75.61,1.25L31.83,279.93A67.38,67.38,0,0,0,7.77,353.61L45,467.74A67.58,67.58,0,0,0,69.1,500.53a66.17,66.17,0,0,0,36.75,13.2l27,82.47a67.57,67.57,0,0,0-23.53,73.42l37.2,114.59s0,.5,0,.52c8.76,26.72,35.75,47.33,62.78,47.33H329.9c27,0,54-20.68,62.77-47.49,0-.14.09-.09.13-.23l.14-.29h85.74l.17.18c.07.27.15.79.24,1.05,8.69,26.52,35.68,46.77,62.78,46.77H662.41c27,0,54-20.65,62.79-47.41,0,0,0-.26,0-.28l37.19-114.78h0c8.48-25.89-1.66-57.53-23.59-73.62l27.06-82.2a66.16,66.16,0,0,0,36.79-13.22,67.57,67.57,0,0,0,24.12-32.77L864,353.94c8.55-26.1-1.8-57.88-24.09-73.91l-97.47-70.22A68.41,68.41,0,0,0,667,208.44l-70-50.51a67.49,67.49,0,0,0-24.89-71.1L474.59,16.71a66.65,66.65,0,0,0-38.69-12Z"/><path class="cls-2" d="M435.9,35.54a35.58,35.58,0,0,1,20.67,6.22L554,111.87c11.62,8.36,17.24,25.53,12.79,39.08l-.73,2.23c-3,9,1.06,21.3,8.76,26.85l77.81,56c3.66,2.64,8.85,4,14.24,4h0c5.37,0,10.55-1.37,14.2-4l2-1.33a37.54,37.54,0,0,1,41.33.11l97.46,70.23c11.45,8.24,17.19,25.86,12.79,39.28L797.48,456.72C793,470.48,778,480.05,764,480.05h-2.78c-9.82,0-20.12,8.73-23,17.48L708,590.28c-3,9,1.07,21.72,8.79,27.27l3.62,2.91c11.37,8.18,17.11,25.9,12.72,39.32L695.88,773.94c-4.51,13.75-19.52,25.11-33.46,25.11H541.87c-14,0-29-11.13-33.46-24.67l-1.73-6.63c-2.83-8.63-13.15-16.71-23-16.71H388.05c-9.58,0-20.12,8.34-23,17.13l-1.74,5.49c-4.46,13.63-19.47,25.38-33.42,25.38H209.36c-14,0-29-11.29-33.47-25l-37.2-114.28c-4.44-13.53,1.18-30.71,12.78-39.07l3.66-2.56c7.6-5.48,11.62-17.69,8.7-26.6l-30.35-94c-2.86-8.74-13.17-17.47-23-17.47h-2.73c-13.95,0-29-9.57-33.47-23.32L37.09,343.29c-4.44-13.54,1.17-30.31,12.78-38.68l97.48-70c5.58-4,12.93-6.13,20.7-6.13a35.59,35.59,0,0,1,20.67,6.27l2,1.49a26.45,26.45,0,0,0,28.46,0l77.69-56.08c7.7-5.56,11.71-17.85,8.76-26.85l-.71-2.16c-4.44-13.55,1.17-30.73,12.77-39.09L415.2,41.77a35.56,35.56,0,0,1,20.7-6.23m0-25.54a61.25,61.25,0,0,0-35.63,11.05L302.79,91.29c-20.78,15-30.08,43.48-22.11,67.77l.32,1,0,.08L205.2,214.81h-.47l-1.05-.76A61.31,61.31,0,0,0,168,203c-13.12,0-25.77,3.91-35.63,11L34.94,284.14c-20.77,15-30.07,43.41-22.12,67.63L50,465.39c7.84,23.93,32.66,41.66,57.74,41.66h1.72s.09.35.13.38L139.13,598l-2.41,1.77-.1.1-.09.09c-20.45,14.74-30,43.89-22.11,67.81l37.19,113.85c8,24.48,32.85,42.4,57.75,42.4H329.9c24.87,0,49.67-18,57.69-42.44l0,.14,0,0,1.29-4.78c.09-.07.2,3.07.29-.93h93.49l1.07,4.62.15.95.18.25c7.93,24.22,32.75,42.18,57.74,42.18H662.41c24.9,0,49.72-17.94,57.73-42.4l37.22-114.16c7.8-23.83-1.53-52.71-21.73-67.5l-3-2.21c0-.08-.06-.14-.09-.23l29.53-90.14s.09-.36.13-.36H764c25.08,0,49.9-17.74,57.73-41.65L859,352.16c7.87-24-1.65-53.16-22.14-67.9l-97.45-70.17a63,63,0,0,0-71.1-.1l-1.11.79h-.49L590.78,160l0-.08.35-1.09c8-24.26-1.36-52.76-22.16-67.72L471.49,21A61.28,61.28,0,0,0,435.9,10Z"/><path class="cls-1" d="M541.87,806.05c-16.14,0-33.49-13.39-38.67-29.2l-1.8-6.49c-2.08-6.32-10.55-12.31-17.7-12.31H388.05c-7.11,0-15.6,5.87-17.8,12.6l-1.72,5.82c-5.28,16.1-22.6,29.58-38.63,29.58H209.36c-16.07,0-33.42-13.55-38.67-29.55L133.48,661.82c-5.15-15.69,1.35-35.71,14.78-45.39l3.7-2.69c5.63-4.06,8.83-13.85,6.66-20.48L128.28,500.5c-2.21-6.76-10.53-12.45-17.79-12.45h-2.73c-16.51,0-33.5-12.59-38.67-28.35L31.89,345.62c-5.21-15.87,1.14-35.31,14.78-45.14l97.48-70.2a43,43,0,0,1,47.76,0l2,1.48a21.07,21.07,0,0,0,22,0l77.69-56.08c5.74-4.14,9-14,6.76-20.71l-.71-2.16c-5.23-15.94,1.12-35.39,14.78-45.23L412,37.33a42.94,42.94,0,0,1,47.77,0l97.46,70.12c13.66,9.83,20,29.27,14.8,45.23l-.72,2.22c-2.2,6.71,1,16.58,6.76,20.72l77.81,56.13a21.06,21.06,0,0,0,22,0l2-1.43a42.95,42.95,0,0,1,47.69.08l97.47,70.22c13.46,9.69,20,29.64,14.79,45.42L802.68,459.69c-5.16,15.76-22.14,28.36-38.66,28.36h-2.78c-7.26,0-15.57,5.68-17.78,12.45l-30.31,92.12c-2.22,6.76,1,16.65,6.79,20.8l3.76,2.85c13.29,9.56,19.76,29.49,14.59,45.29L701.08,776.44c-5.26,16-22.6,29.61-38.67,29.61Z"/><path class="cls-3" d="M435.9,35.54a35.58,35.58,0,0,1,20.67,6.22L554,111.87c11.62,8.36,17.24,25.53,12.79,39.08l-.73,2.23c-3,9,1.06,21.3,8.76,26.85l77.81,55.49c3.66,2.64,8.85,3.52,14.24,3.52h0c5.37,0,10.55-.87,14.2-3.5l2-1.08c5.52-4,12.85-6,20.6-6a35.74,35.74,0,0,1,20.74,6.32L821.9,305c11.45,8.24,17.19,25.88,12.79,39.29l-37.21,111.9C793,470,778,479.05,764,479.05h-2.78c-9.82,0-20.12,9.23-23,18L708,590c-3,9,1.07,21.84,8.79,27.39l3.62,3c11.37,8.18,17.11,25.93,12.72,39.35L695.88,773.43c-4.51,13.75-19.52,24.62-33.46,24.62H541.87c-14,0-29-10.63-33.46-24.17L506.68,767c-2.83-8.63-13.15-17-23-17H388.05c-9.58,0-20.12,8.84-23,17.63l-1.74,5.24c-4.46,13.63-19.47,25.13-33.42,25.13H209.36c-14,0-29-10.79-33.47-24.52l-37.2-114c-4.44-13.53,1.18-30.58,12.78-38.94l3.66-2.5c7.6-5.48,11.62-17.66,8.7-26.57L133.48,497c-2.86-8.74-13.17-18-23-18h-2.73c-13.95,0-29-9.07-33.47-22.82L37.09,343c-4.44-13.54,1.17-30.19,12.78-38.56l97.48-70c5.58-4,12.93-6.1,20.7-6.1a35.6,35.6,0,0,1,20.67,6.28l2,1.5a26.45,26.45,0,0,0,28.46,0l77.69-56.07c7.7-5.56,11.71-17.85,8.76-26.85l-.71-2.16c-4.44-13.55,1.17-30.73,12.77-39.09L415.2,41.77a35.56,35.56,0,0,1,20.7-6.23m0-10.95a46.56,46.56,0,0,0-27.1,8.3l-97.48,70.24c-15.5,11.17-22.72,33.26-16.78,51.38l.71,2.16c1.46,4.46-.95,11.81-4.77,14.57L212.8,227.32a15.74,15.74,0,0,1-15.66,0l-2-1.46a48.43,48.43,0,0,0-54.18-.05L43.47,296C28,307.15,20.77,329.17,26.69,347.21l37.2,113.45c6,18.18,24.82,31.39,43.87,31.39h2.73c5.36,0,11.27,5.37,12.59,9.41l30.35,93.23c1.44,4.39-.93,11.75-4.7,14.46l-3.58,2.59c-15.59,11.24-22.81,33.37-16.86,51.5l37.2,113.69c6,18.41,25.31,32.13,43.88,32.13H329.9c18.53,0,37.78-13.75,43.82-32.19l1.76-6.18c1.42-4.32,7.89-9.63,12.57-9.63H483.7c5.14,0,11.1,5.67,12.51,9.58l1.65,6.42.07.49.08-.34c6,18.19,25.23,31.86,43.87,31.86H662.41c18.57,0,37.83-13.73,43.87-32.14l37.22-114c5.85-17.86-1.44-40.24-16.59-51.25l-3.5-2.6-.13-.06-.14-.08c-3.85-2.77-6.26-10.19-4.78-14.71l30.3-92.71c1.48-4.52,7.71-9.42,12.59-9.42H764c19.05,0,37.91-13.22,43.86-31.39l37.21-113.15c5.87-17.92-1.51-40.45-16.8-51.45l-97.46-70.15a48.44,48.44,0,0,0-54.13,0l-1.91,1.36a15.7,15.7,0,0,1-15.71,0l-77.81-56.13c-3.82-2.76-6.23-10.11-4.76-14.57l.73-2.25c5.93-18.11-1.29-40.19-16.81-51.36L463,32.87a46.59,46.59,0,0,0-27.07-8.28Z"/><path class="cls-3" d="M638.58,750.05h-68c-11.79,0-23.81-8.41-27.35-19.31l-4.12-12.09c-2.73-8.41-12.27-15.6-20.42-15.6H364.14c-8.23,0-17.77,7-20.41,15.18l-4.13,13c-3.53,10.85-15.29,18.84-27.36,18.84h-68c-11.88,0-23.89-8.23-27.35-18.89l-21-63.83c-3.57-11,1.12-25.41,10.45-32.19l1.54-1.21c7-5.08,10.54-16.15,7.87-24.27L165.35,455.82c-2.75-8.37-12.31-15.76-20.47-15.76h-10.7c-12.08,0-23.83-8.1-27.35-18.92l-21-63.84c-3.56-11,1.13-25.38,10.45-32.15l55-40c9.32-6.77,24.48-6.76,33.8,0l3.44,2.51c6.84,5,18.41,5,25.27.07l134.12-96.56c6.85-4.94,10.44-15.89,7.83-23.92l-2.28-7c-3.56-11,1.13-25.38,10.45-32.15l55-40c9.32-6.77,24.48-6.76,33.8,0l55.06,40.08c9.31,6.78,14,21.21,10.43,32.16l-2.2,6.77c-2.61,8,1,19,7.84,23.89L658.86,288c6.86,4.93,18.18,5.08,24.72.33,9-6.55,23.93-6.38,33.22.39l55.06,40c9.44,6.87,14,20.9,10.43,31.94l-21,64.31c-3.52,10.81-15.27,19.09-27.35,19.09h-8.28c-8.16,0-17.72,7.21-20.46,15.57l-47,144.11c-2.63,8,.92,18.94,7.74,23.9l10.55,7.55c9.46,6.89,14,20.91,10.45,31.95l-21,64.07C662.48,741.84,650.46,750.05,638.58,750.05Zm-274.44-54H518.66c11.36,0,23.63,9.07,27.35,20.52l4.12,12.15c2.59,8,11.74,14.33,20.42,14.33h68c8.76,0,17.91-6.28,20.41-14l21-64.21c2.58-7.93-1-18.83-7.79-23.79l-10.55-7.57c-9.49-6.91-14-21-10.4-32.12l47-144.4c3.75-11.43,16-21,27.4-21h8.28c8.76,0,17.91-6,20.41-13.7l21-64.08c2.63-8.07-.87-18.68-7.79-23.72L712.5,294.61c-6.81-5-18.09-5.12-24.64-.37-9,6.54-23.93,6.41-33.26-.3L519.65,197c-9.36-6.73-14.08-21.11-10.52-32.07l2.2-6.77c2.62-8-1-19-7.79-24L448.49,94.08c-6.83-5-18.38-5-25.22,0l-55,40c-6.84,5-10.41,16-7.8,24l2.28,7c3.56,11-1.15,25.36-10.51,32.1L218.08,293.7c-9.35,6.73-24.52,6.69-33.83-.09l-3.44-2.5c-6.83-5-18.38-5-25.22,0l-55,40c-6.84,5-10.41,16-7.8,24l21,63.46c2.5,7.7,11.65,13.54,20.41,13.54h10.7c11.36,0,23.65,9.71,27.4,21.14l50.33,154c3.63,11-1,25.67-10.39,32.47l-1.54,1.27c-7,5.07-10.55,16.11-7.93,24.17l21,63.93c2.5,7.71,11.66,14,20.41,14h68c8.76,0,17.91-6.28,20.41-14l4.13-12.92C340.43,704.93,352.69,696.05,364.14,696.05Z"/><path class="cls-3" d="M435.92,1052.36c-43,0-84-5.91-115.32-16.64-48.65-16.66-58.86-39.65-58.86-56l0-.82c10.77-192.35-4.57-289.15-21.4-382.77-12-66.76-22.1-129.79-22.1-222.09v-.49l-.38-20.75-.71-1.1c16.57-55.39,128.23-75,219.26-75,90.84,0,202.63,21.67,219.44,79.1l3.84,15.3h-2.6l-.85,3.3V375c0,91.74-11.36,154.26-23.26,220.45l.18,1c-16.86,93.78-34.05,190.47-23.3,382.32l.12,1c0,16.32-10.16,39.28-58.8,56C520,1046.45,479,1052.36,435.92,1052.36ZM317.11,973.81c3.09,2.24,9.43,6,21.41,10.08,25.73,8.83,60.32,13.69,97.4,13.69s71.67-4.86,97.4-13.69c12-4.11,18.32-7.84,21.41-10.08-10.23-193.28,7.51-292,24.67-387.47,11.88-66.08,23.1-128.5,23.36-220.12-2.78-3.26-13.4-11.52-37.81-19.78-34.54-11.68-80.36-18.11-129-18.11-49.64,0-95.93,6.52-130.34,18.37-23.3,8-33.68,16.24-36.5,19.54.24,91.47,11.47,153.94,23.36,220.06C309.59,681.78,327.34,780.5,317.11,973.81Z"/><path class="cls-1" d="M435.92,288.37c96.67,0,195.25,23.69,209.14,70.69h-.13l1.78,16.57c-.84,91.28-12.1,153.08-24,219.25-16.94,94.28-34.47,191.36-23.64,384.67v.3c0,18.34-17.79,34-51.43,45.59-30.22,10.38-69.91,16-111.74,16s-81.53-5.71-111.74-16.06c-33.65-11.53-51.44-27.32-51.44-45.66v-.51c10.83-193.31-6.69-290.76-23.64-385-11.9-66.2-23.17-128.86-24-220.26l1.56-18.74C240.2,310,339,288.37,435.92,288.37m0,720.16c38.27,0,74.13-5.07,101-14.28C558,987,564.42,980.34,566,978.33c-10.75-195.4,7-294.37,24.24-390.07,12-66.9,23.38-130,23.53-223.31l0-1c-.15-4.18-11.4-16.39-45.23-27.83-35.65-12.05-82.73-18.69-132.57-18.69-50.83,0-98.4,6.74-133.94,19-32.47,11.18-43.71,23.55-43.85,27.48l-.05,1.4c.16,93,11.51,156.13,23.53,223,17.21,95.71,35,194.68,24.25,390.1,1.56,2,8,8.68,29.08,15.91,26.85,9.21,62.71,14.28,101,14.28m0-742.81c-99.36,0-212,21.77-230.32,82.87l-.66,2.19-.19,2.28-1.56,19.12-.08,1v1c.84,93.24,12.25,156.71,24.34,223.91,16.72,93,34,189.18,23.33,379.93l0,.3v.3l.25.51.25.31v.31c0,19.91,11.24,47.59,66,66.35,32.44,11.12,74.54,17.24,118.77,17.24s85.57-6.12,117.94-17.23c30.23-10.38,65.28-30.31,65.28-66.33v-.4l.9-.4.44-.4.22-.21.1-.21c-10.68-190.57,6.64-286.62,23.34-379.52l.08-.27.2-.11c11.79-65.61,23-129.43,24.12-217h0l-2.48-28.92c-18.49-63.18-131.07-86.6-230.26-86.6ZM280.1,371.12c3.91-3,12.53-8.37,29.07-14.07,33.29-11.46,78.3-17.77,126.75-17.77,47.49,0,92.06,6.22,125.49,17.53,16.52,5.59,25.94,11,30.32,14.27-.63,88-11.58,148.93-23.16,213.33-17.08,95-34.72,193.2-25.16,383.46a101.41,101.41,0,0,1-13.67,5.67c-24.6,8.44-57.92,13.09-93.81,13.09s-69.2-4.65-93.81-13.09a101.41,101.41,0,0,1-13.67-5.67c9.56-190.29-8.09-288.48-25.17-383.49C291.67,519.93,280.72,459,280.1,371.12Z"/><path class="cls-4" d="M435.92,1014c-90,0-133.65-25.86-135.65-34.35,10.9-195.84-6.88-294.76-24.08-390.42C264.12,522,252.72,458.61,252.58,364.73l0-1c.65-18.15,64.18-51.83,183.29-51.83s182.64,33.68,183.29,51.73l.05,1.34c-.16,93.78-11.55,157.13-23.61,224.21-17.2,95.7-35,194.61-24.07,390.5C569.72,988,526.1,1014,435.92,1014Z"/><path class="cls-1" d="M435.92,1021.29c-93.1,0-139.61-26.48-142.79-40l-.24-1,.06-1c10.85-195-6.85-293.49-24-388.73C256.84,523,245.39,459.28,245.24,364.74l.05-1.32c.49-13.63,19.49-28,52.14-39.28,25.69-8.9,70.58-19.51,138.48-19.51s112.77,10.61,138.48,19.5c32.64,11.3,51.65,25.61,52.14,39.27l.05,1.33c-.16,94.71-11.61,158.37-23.72,225.76-17.13,95.29-34.83,193.79-24,388.81l.05,1-.21,1C575.55,995.63,525.11,1021.29,435.92,1021.29ZM307.71,978c6.24,7.35,46.63,28.69,128.21,28.69s121.93-21.3,128.22-28.63c-10.72-195.38,7.07-294.37,24.28-390.12,12-66.78,23.34-129.83,23.51-223l0-1.06c-.37-10.42-56-44.71-176-44.71S260.33,353.58,260,364l0,1.05c.15,92.91,11.49,156,23.51,222.87C300.62,683.67,318.41,782.67,307.71,978Z"/><path class="cls-1" d="M393.2,600.9c-18.66-.35-34-12-41.88-31.43a36.81,36.81,0,0,1-11.9,1.9c-34.09,0-37.79-35.07-39.36-50-.2-1.92-.38-3.6-.58-4.95-1-6.46-4.37-17.7-16-20.44-21.11-3.85-39.45-20.82-39.71-32.13-.61-8-1.28-15.21-1.92-22.15-1.61-17.28-3.14-33.6-3.17-58.26l-.89-17.6v-.23c.87-26.44,80.47-66.42,198.47-66.42,119.45,0,196.92,37.89,197.77,64l.08,21.67c0,26.69-1.39,42.87-3,61.62-.46,5.51-.94,11.28-1.42,17.66l0,.27-.59,3.38c-1.37,11.64-31.32,28.13-60.42,33l-.91.15c-7,1.16-7.92,1.31-8.09,6.94-.13,4.07-.4,9.14-.78,14.25-1.24,19.14-18.63,35.78-37.23,35.78a26.27,26.27,0,0,1-19.43-8.19c-6.4-6.69-9.76-16.94-9.21-28.11l0-.46c.07-1.21.25-4.55.25-6.14,0-7.12-1.3-8.28-9.3-8.28-6.7,0-12.34.27-17.79.53s-11.32.55-18.24.55c-2.37,0-9.56,0-9.56,14.68,0,10.86,0,21.06.06,24.65v1.36c0,30.9-18.25,52.47-44.37,52.47Z"/><path class="cls-3" d="M436.21,304.62c120.36,0,191.62,38.67,192.28,58.68l.08,21.51c-.05,34.15-2.24,50.54-4.36,78.84l-.54,3.12c-.89,7.56-26.53,23.62-55.91,28.55-7.53,1.26-13.25,1.77-13.58,12.32-.21,6.79-.76,14-.78,14.25-1.08,16.69-16.57,30.48-31.72,30.48s-24-13.91-23.15-30.56c0-.52.28-4.92.28-6.86,0-11.12-4.91-13.75-14.8-13.75-13.65,0-22.43,1.08-36,1.08-11.29,0-15.06,9.47-15.06,20.15,0,13.18.07,25.41.07,26,0,26.3-15,47-38.87,47h-.8c-19.41-.37-32.9-14.25-38.8-33.38a30.12,30.12,0,0,1-15.09,3.85c-33,0-32.65-38.13-34.5-50.34-1.77-11.67-8-22.09-20.22-24.95-19.23-3.51-35.47-19-35.47-27-2.13-28.31-5-45.91-5.09-80.17l-.89-17.64c.66-20.12,72.61-61.12,193-61.12m0-10.95c-69.2,0-117.23,12.92-145.35,23.76-17.37,6.7-57.86,24.78-58.62,48v.45l0,.45.87,17.38c0,24.77,1.58,41.16,3.2,58.51.64,6.88,1.31,14,1.91,21.91.48,15.08,21.67,33,44.16,37.23,7.93,2,10.71,9.71,11.65,15.87.19,1.28.36,2.88.55,4.7,1.58,15,5.78,55,44.83,55a43.8,43.8,0,0,0,8.78-.87c9.21,18.87,25.4,30,44.89,30.4h1C423,606.38,444,582,444,548.44v-1.38c0-3.58-.06-13.77-.06-24.62,0-9.2,2.74-9.2,4.06-9.2,7.06,0,12.88-.28,18.5-.55s11-.53,17.52-.53a22.45,22.45,0,0,1,3.63.23,16.23,16.23,0,0,1,.17,2.58c0,.92-.08,2.89-.24,5.87l0,.46c-.62,12.67,3.29,24.39,10.72,32.15a31.66,31.66,0,0,0,23.42,9.88c21.34,0,41.3-19,42.7-40.73.23-3.12.63-9,.8-14.61,0-.44,0-.8.07-1.08,1-.22,2.34-.45,3.43-.63l.92-.15c28.94-4.85,62.49-21.44,65-37.64l.51-3,.09-.53,0-.53c.48-6.37,1-12.13,1.42-17.63,1.57-18.86,3.82-35.14,3.86-62l.81-21.57v-.16l-.89-.16c-1.07-32.7-89.12-69.27-204.16-69.27Z"/><path class="cls-3" d="M412.06,432.05h-.23c-19.46,0-38.4-2.52-56.28-5.05a5.54,5.54,0,0,1-4.73-6.25,5.59,5.59,0,0,1,6.34-4.66,544.78,544.78,0,0,0,55.12,4.84,5.56,5.56,0,0,1-.22,11.12Zm55.92-.56a5.47,5.47,0,0,1-.29-10.94C567.43,415.32,627,387.64,627,363.91c0-10.53-11.39-21.55-32.08-31a5.42,5.42,0,0,1-2.69-7.28,5.64,5.64,0,0,1,7.44-2.63c25.19,11.55,38.52,25.71,38.52,40.94,0,34.53-69.88,62.32-169.94,67.57Zm-216.2-39.92a5.64,5.64,0,0,1-3.66-1.34c-9.62-8.17-14.5-17-14.5-26.32,0-31.11,56.09-56.83,142.91-65.52a5.55,5.55,0,0,1,6.13,4.89c.31,3-2.37,3.09-5.45,3.4-77,7.71-132.41,33.29-132.41,57.24,0,6,3.58,12.05,10.64,18.05a5.39,5.39,0,0,1,.56,7.72A5.63,5.63,0,0,1,251.77,391.57Zm182.29-83.3"/><path class="cls-3" d="M490.65,913.5c-26,0-46.83-11.71-57.21-32.12a3.64,3.64,0,0,1,1.43-4.8l24.06-13.91a3.68,3.68,0,0,1,5,1.25c7,11.32,14.76,16.14,26.07,16.14,9.83,0,16.43-4.37,16.43-10.88,0-7.49-5.59-10.22-19.35-16.21l-7.38-3.15c-19.61-8.31-37.77-19.85-37.77-47.73,0-25.06,19.34-42.56,47-42.56,21,0,35.38,8.08,45.29,25.43a3.64,3.64,0,0,1-1.2,4.87L510,804.56a3.68,3.68,0,0,1-5.19-1.29c-4.39-7.84-8.69-10.75-15.85-10.75-6.28,0-10.5,3.61-10.5,9,0,6.22,3,8.94,16,14.54l7.39,3.15c25.67,11,41.58,23.07,41.58,49.63C543.37,896,522.68,913.5,490.65,913.5Zm-114.15-.06c-21.9,0-38.85-10.3-47.72-29a3.64,3.64,0,0,1,1.42-4.68l24.1-14.51a3.68,3.68,0,0,1,5.09,1.33c4.67,8.24,7.93,13.29,15.86,13.29s12.19-2.37,12.19-14.86V764.86a3.66,3.66,0,0,1,3.67-3.65h29.6a3.66,3.66,0,0,1,3.67,3.65V865.42C424.38,895.94,406.93,913.44,376.51,913.44Z"/><ellipse class="cls-1" cx="380.91" cy="711.43" rx="25.71" ry="25.58"/><path class="cls-3" d="M380.91,740.66a29.23,29.23,0,1,1,29.36-29.23A29.33,29.33,0,0,1,380.91,740.66Zm0-51.16A21.93,21.93,0,1,0,403,711.43,22,22,0,0,0,380.91,689.5Z"/><ellipse class="cls-1" cx="380.91" cy="674.95" rx="53.78" ry="37.09"/><path class="cls-3" d="M374.38,715.42h-.31c-28.84-2.41-50.58-19.81-50.58-40.46,0-22.46,25.76-40.74,57.43-40.74s57.43,18.28,57.43,40.74c0,17.1-15.16,32.49-37.73,38.3a3.65,3.65,0,1,1-1.82-7.07c19.29-5,32.25-17.51,32.25-31.23,0-18.44-22.49-33.44-50.13-33.44s-50.13,15-50.13,33.44c0,16.83,18.87,31.1,43.89,33.19a3.65,3.65,0,0,1-.3,7.28Z"/><path class="cls-3" d="M382.76,978a17.64,17.64,0,0,1-13.09-5.23,18.16,18.16,0,0,1,0-25.45,19,19,0,0,1,26.17,0,18.16,18.16,0,0,1,0,25.45A17.64,17.64,0,0,1,382.76,978Zm0-8.19a8.56,8.56,0,0,0,6.49-2.76,10.65,10.65,0,0,0,0-14,8.56,8.56,0,0,0-6.49-2.76,8.67,8.67,0,0,0-6.54,2.76,10.8,10.8,0,0,0,0,14A8.67,8.67,0,0,0,382.76,969.78Z"/><path class="cls-3" d="M404.57,977.28V942.75h8.87L422.22,956,431,942.75h8.82v34.53H431V956.22l-6.2,9.27h-4.91l-6.39-9.27v21.06Z"/><path class="cls-3" d="M443.29,974.27v-9.08a17.72,17.72,0,0,0,5.95,3.35,20.53,20.53,0,0,0,7.14,1.38c3.52,0,5.3-.89,5.3-2.71,0-1-.55-1.48-1.34-2a9.2,9.2,0,0,0-2.23-.89l-3.12-.94-2.53-.74-2.28-.89a14.32,14.32,0,0,1-2.28-1.09,13.53,13.53,0,0,1-3.37-3.16,11.27,11.27,0,0,1-1.24-5.08c0-6.66,5.3-10.36,13.63-10.36a24.63,24.63,0,0,1,11.75,2.86v8.53a23.62,23.62,0,0,0-5.5-2.37,21.31,21.31,0,0,0-6.15-1c-3,0-4.56.74-4.56,2.27,0,.64.4,1.13,1.44,1.58l1.59.54c1,.34,3.32.94,4.76,1.38a22.77,22.77,0,0,1,7.83,4.09,8.66,8.66,0,0,1,2.83,6.91,9.67,9.67,0,0,1-4,8.09c-2.63,2-6,3-10.21,3C451.37,978,446.91,976.74,443.29,974.27Z"/><path class="cls-3" d="M474,977.28V942.75h8.92v13.17l11.25-13.17h10.71l-13.43,15.88,15.91,18.64H496.48l-13.58-15.34v15.34Z"/></g></g></svg>