<svg xmlns="http://www.w3.org/2000/svg" xmlns:xlink="http://www.w3.org/1999/xlink" viewBox="0 0 451.67 421.91"><defs><style>.cls-1{fill:none;}.cls-2{fill:#f4b831;}.cls-3{fill:#fff;}.cls-4{clip-path:url(#clip-path);}.cls-5{fill:#f29c33;}</style><clipPath id="clip-path"><circle class="cls-1" cx="223.39" cy="215.22" r="215.69" transform="translate(-85.85 239.62) rotate(-48.45)"/></clipPath></defs><title>Asset 4</title><g id="Layer_2" data-name="Layer 2"><g id="Layer_1-2" data-name="Layer 1"><path class="cls-2" d="M242.69,255a19.31,19.31,0,0,0-38.62.34v27.21h38.8Z"/><path class="cls-2" d="M27.06,255.56v-13H25.45l20.13-14h.55l15.34,11h1.6v-3h2v3h33v-3.75l-3-4.25h1.21l6.3-22h1.48v-6H103l-1-2h1.35l2.75-9h.42l2.75,9h1l-1,2h-.25v6h.56l6.3,22h.82l-2.52,4h-.15v4.9l7-5v-5.88h3v4.2l6.61-5.2h.55l20.13,14h-3.28V276.1l8.39-2.51,6.61,2.79V261.81l10-9.91V203.21l-6.26-13.65h6.26v-7h28v-7h43v7h30v7h6.1l-6.1,13.27v49.66l10,9.32v1.75h20V250.35l-2.17-3.79h4.58s0-.21,0-.31c0-4.71,3.46-8.55,7.73-8.55s7.73,3.83,7.73,8.55c0,.1,0,.31,0,.31h1.15v-7h9c1.85-4,5-6.64,9-8.68v-4.32h12.76c-.33,0-.56-1.79-.56-3.07a9.29,9.29,0,0,1,.29-2.39,5.56,5.56,0,0,0-.07-3.14c0-.57.3-1,.67-1s.67.46.67,1a1.37,1.37,0,0,0,.75,1.94,1.4,1.4,0,0,1-.45,1,8.4,8.4,0,0,1,.35,2.56c0,1.28-.23,3.07-.56,3.07h12.13v4.28c4,2,7.45,4.72,9.31,8.72h61.57a215.42,215.42,0,0,0-71.3-185.27c-89.14-79-225.46-70.81-304.48,18.33A215.31,215.31,0,0,0,11.59,255.56Z"/><path class="cls-3" d="M14.53,363.54v-50.1H48.89v12H28.29v8.33H45.08v11.15H28.29v18.63Z"/><path class="cls-3" d="M61.31,363.54v-50.1h23A15.23,15.23,0,0,1,91.09,315a17.59,17.59,0,0,1,5.33,4,18.47,18.47,0,0,1,3.49,5.57,16.72,16.72,0,0,1,1.27,6.31,17.83,17.83,0,0,1-1.91,8.15A16.6,16.6,0,0,1,94,345.12l10.58,18.42H89l-8.82-15.38H75.07v15.38Zm13.76-27.38h8.68a3,3,0,0,0,2.36-1.41,6.32,6.32,0,0,0,1.09-4,5.68,5.68,0,0,0-1.27-4,3.56,3.56,0,0,0-2.54-1.38H75.07Z"/><path class="cls-3" d="M137.94,364a24.09,24.09,0,0,1-10.37-2.19,25.65,25.65,0,0,1-8-5.75,26,26,0,0,1-5.15-8.15,25.23,25.23,0,0,1-1.83-9.46,24.59,24.59,0,0,1,1.91-9.53,25.27,25.27,0,0,1,5.33-8.08,26,26,0,0,1,8.11-5.57,25,25,0,0,1,10.27-2.08,24.11,24.11,0,0,1,10.37,2.19,25.41,25.41,0,0,1,8,5.79,26,26,0,0,1,5.12,8.19,25.5,25.5,0,0,1,1.8,9.38,24.33,24.33,0,0,1-1.91,9.49,25.7,25.7,0,0,1-5.29,8,26,26,0,0,1-8.08,5.61A24.68,24.68,0,0,1,137.94,364Zm-11.36-25.4a17,17,0,0,0,.71,4.9,12.78,12.78,0,0,0,2.12,4.2,10.67,10.67,0,0,0,3.56,3,12.06,12.06,0,0,0,10.27,0,10.44,10.44,0,0,0,3.56-3,13.06,13.06,0,0,0,2-4.27,18,18,0,0,0,.67-4.87,17.08,17.08,0,0,0-.71-4.9,12.1,12.1,0,0,0-2.15-4.16,10.88,10.88,0,0,0-3.6-2.89,11,11,0,0,0-5-1.09,10.88,10.88,0,0,0-5.12,1.13,10.52,10.52,0,0,0-3.56,3,12.7,12.7,0,0,0-2.08,4.23A17.59,17.59,0,0,0,126.58,338.56Z"/><path class="cls-3" d="M190.16,338.91v24.63H176.4v-50.1h10.73l20.11,25.47V313.44H221v50.1H210.06Z"/><path class="cls-3" d="M275.68,325.44H261.29v38.1H247.53v-38.1H233.06v-12h42.62Z"/><path class="cls-3" d="M323.45,351.54v12h-35.7v-50.1h35.07v12H301.51v7.06h18.21v11.15H301.51v7.9Z"/><path class="cls-3" d="M350.69,338.91v24.63H336.93v-50.1h10.73l20.11,25.47V313.44h13.76v50.1H370.59Z"/><path class="cls-3" d="M397.19,363.54v-50.1h19.26a28.2,28.2,0,0,1,10.94,2,22,22,0,0,1,12.7,13.3,28.67,28.67,0,0,1,1.62,9.7,28.3,28.3,0,0,1-1.8,10.34,22.39,22.39,0,0,1-5.12,7.9,22.94,22.94,0,0,1-8,5.08,28.57,28.57,0,0,1-10.37,1.8Zm30.55-25.12a17.15,17.15,0,0,0-.78-5.29,11.86,11.86,0,0,0-2.22-4.09,10,10,0,0,0-3.56-2.65,11.4,11.4,0,0,0-4.73-1h-5.5v26.11h5.5a11.21,11.21,0,0,0,4.8-1,10,10,0,0,0,3.56-2.75,12.13,12.13,0,0,0,2.19-4.16A17.61,17.61,0,0,0,427.74,338.42Z"/><g class="cls-4"><path class="cls-5" d="M204.06,282.56h38.8L242.69,255a19.31,19.31,0,0,0-38.62.34Z"/><path class="cls-5" d="M355.49,223.49c0,1.28-.23,3.07-.56,3.07h12.13v4.28c4,2,7.45,4.72,9.31,8.72h66.69v29.29l2,.38v13.33h3V229.8a24.83,24.83,0,0,1,3.61-2.55l-3.61-.65v-3h-6v2l-17.94-3.28L420.06,224v-6.42h-2v7.59l-.9.29-22.08-5.8-1,.27v-3.34h-4v4.28L386,221.9l-30.62,0A10.07,10.07,0,0,1,355.49,223.49Z"/><path class="cls-5" d="M348.16,226.56h5.67c-.33,0-.56-1.79-.56-3.07a10.66,10.66,0,0,1,.11-1.54H350.3Z"/><path class="cls-5" d="M274.06,221.13v31.36l10,9.32v1.75h20V250.35l-2.17-3.79h4.58s0-.21,0-.31c0-4.71,3.46-8.55,7.73-8.55s7.73,3.83,7.73,8.55c0,.1,0,.31,0,.31h1.15v-7h9c1.85-4,5-6.64,9-8.68v-4.32h6.68l2.6-5h0l-4.27-1.47v-6.53h-13v-2H329c-1.24-5-5.92-8.65-11.92-8.67h0c-6,.14-10.45,3.66-11.67,8.66h-3.33v2h-13v5.23l-8.63.18,0,2.27Z"/><path class="cls-5" d="M7.06,255.56h20v-13H25.45l20.13-14h.55l15.34,11h1.6v-3h2v3h33v-3.75l-3-4.25h1.21l2.29-8H82.06v-7.25l-2.6-.56.41-4.58-5.78-.62.75-2H66.31l-.25,6.14-3.77-2.4L56,212l-.25,2-2.51-2.5H48.73l-4.27.15-3.52.9-1.51-2.2-4.52.37-.25,7.78H33.16l.22,3.8-27.16,1,.69-5.72-5.4-.89L0,277.56H7.06Z"/><polygon class="cls-5" points="113.79 224.14 115.92 231.56 116.73 231.56 114.21 235.56 114.06 235.56 114.06 240.45 121.06 235.44 121.06 230.57 121.06 229.56 124.06 229.56 124.06 230.57 124.06 233.76 130.67 228.56 131.22 228.56 151.34 242.56 148.06 242.56 148.06 276.1 156.45 273.59 163.06 276.38 163.06 261.81 173.06 251.9 173.06 229.73 172.16 227.62 140.88 226.61 134.06 230.13 134.06 225.6 113.79 224.14"/><path class="cls-5" d="M312,191.89c-.18.4,2.39-.59,2.58-1.88.12-.2,1.46-.1,2.46-.07v-4c-1,.45-6.83,3.61-6.68,3.86S312.2,191.48,312,191.89Z"/></g><path class="cls-3" d="M171,421.76V407l-5.76,11H162.9l-5.76-11v14.81h-4.35V399.39h4.66l6.62,12.73,6.68-12.73h4.63v22.37Z"/><path class="cls-3" d="M198.71,417.94v3.81H183.19V399.39h15.25v3.81h-10.9v5.39H197v3.53h-9.42v5.83Z"/><path class="cls-3" d="M220.8,417.94v3.81H205.27V399.39h15.25v3.81h-10.9v5.39H219v3.53h-9.42v5.83Z"/><path class="cls-3" d="M244.08,403.2h-7.15v18.55h-4.32V403.2h-7.15v-3.81h18.62Z"/><path class="cls-3" d="M259.45,418.07a5,5,0,0,0,2.6-.63,5.08,5.08,0,0,0,1.7-1.64,6.78,6.78,0,0,0,.91-2.32,13.37,13.37,0,0,0,.27-2.69v-11.4h4.32v11.4a16.31,16.31,0,0,1-.55,4.32,9.9,9.9,0,0,1-1.73,3.53,8.29,8.29,0,0,1-3,2.39,10.28,10.28,0,0,1-4.44.88,10.16,10.16,0,0,1-4.55-.93,8.48,8.48,0,0,1-3-2.46A9.8,9.8,0,0,1,250.2,415a16.71,16.71,0,0,1-.52-4.19v-11.4H254v11.4a13.53,13.53,0,0,0,.27,2.72,6.75,6.75,0,0,0,.91,2.32,4.74,4.74,0,0,0,4.24,2.24Z"/><path class="cls-3" d="M276.77,421.76V399.39h9.48a6.35,6.35,0,0,1,2.85.65,7.39,7.39,0,0,1,2.25,1.7,8.05,8.05,0,0,1,1.48,2.39,7.21,7.21,0,0,1,.54,2.69,7.76,7.76,0,0,1-.5,2.76,7.65,7.65,0,0,1-1.42,2.38,7,7,0,0,1-2.2,1.67,6.38,6.38,0,0,1-2.84.63h-5.29v7.5Zm4.35-11.31h5a2.49,2.49,0,0,0,2-1,4,4,0,0,0,.8-2.65,4.36,4.36,0,0,0-.25-1.53,3.72,3.72,0,0,0-.66-1.15,2.64,2.64,0,0,0-1-.71,2.81,2.81,0,0,0-1.12-.24h-4.85Z"/><path class="cls-3" d="M183.45,89.41a10.16,10.16,0,0,1-4.46-1,11,11,0,0,1-3.43-2.55,11.83,11.83,0,0,1-3-7.83,11.24,11.24,0,0,1,.83-4.28,11.83,11.83,0,0,1,2.3-3.62,11,11,0,0,1,3.48-2.5,10.34,10.34,0,0,1,4.38-.93,9.82,9.82,0,0,1,4.43,1,11,11,0,0,1,3.42,2.6A12,12,0,0,1,193.6,74a11.52,11.52,0,0,1,.79,4.16,11.31,11.31,0,0,1-.82,4.27A11.6,11.6,0,0,1,191.3,86a10.91,10.91,0,0,1-3.47,2.49A10.32,10.32,0,0,1,183.45,89.41ZM177,78.07a9,9,0,0,0,.44,2.8,7.49,7.49,0,0,0,1.28,2.39,6.33,6.33,0,0,0,2,1.67,6.34,6.34,0,0,0,5.54,0,6.35,6.35,0,0,0,2-1.72,7.66,7.66,0,0,0,1.26-2.41,9,9,0,0,0,.42-2.72,8.71,8.71,0,0,0-.46-2.8,7.76,7.76,0,0,0-1.29-2.39,6.17,6.17,0,0,0-2-1.65,6.38,6.38,0,0,0-5.53,0,6.21,6.21,0,0,0-2,1.7,7.66,7.66,0,0,0-1.24,2.39A9,9,0,0,0,177,78.07Z"/><path class="cls-3" d="M219.11,89.25V74.45l-5.76,11H211l-5.76-11V89.25h-4.35V66.89h4.66l6.62,12.73,6.68-12.73h4.63V89.25Z"/><path class="cls-3" d="M244.59,72.75a5.36,5.36,0,0,0-.8-.6,9.7,9.7,0,0,0-1.42-.74,12.26,12.26,0,0,0-1.81-.61,7.92,7.92,0,0,0-2-.25,4.45,4.45,0,0,0-2.68.66,2.19,2.19,0,0,0-.88,1.86,1.91,1.91,0,0,0,.33,1.15,2.86,2.86,0,0,0,1,.8,8,8,0,0,0,1.59.63q1,.28,2.22.6,1.64.44,3,.95a8.08,8.08,0,0,1,2.27,1.26,5.2,5.2,0,0,1,1.43,1.81,6,6,0,0,1,.5,2.6,6.48,6.48,0,0,1-.68,3.07A5.69,5.69,0,0,1,244.8,88a7.93,7.93,0,0,1-2.65,1.15,13.3,13.3,0,0,1-3.13.36,16.83,16.83,0,0,1-5-.76,15.35,15.35,0,0,1-4.41-2.14l1.92-3.75a6.06,6.06,0,0,0,1,.74,15.46,15.46,0,0,0,1.75.91,13.52,13.52,0,0,0,2.24.77,10.09,10.09,0,0,0,2.52.32q3.59,0,3.59-2.3a1.88,1.88,0,0,0-.41-1.23,3.47,3.47,0,0,0-1.17-.88,11.2,11.2,0,0,0-1.83-.69l-2.39-.69a20.36,20.36,0,0,1-2.79-1,7.34,7.34,0,0,1-2-1.23A4.6,4.6,0,0,1,230.94,76a5.67,5.67,0,0,1-.39-2.22,7,7,0,0,1,.63-3,6.11,6.11,0,0,1,1.75-2.2,7.92,7.92,0,0,1,2.6-1.34,10.74,10.74,0,0,1,3.18-.46,12.36,12.36,0,0,1,4.35.74,16.2,16.2,0,0,1,3.46,1.75Z"/><path class="cls-3" d="M253.73,89.25V66.92h4.35V77.53l9.39-10.65h4.79l-8.57,9.92,9.1,12.44H267.9l-7-9.67-2.87,3v6.68Z"/></g></g></svg>