<?xml version="1.0" encoding="UTF-8" standalone="no"?>
<svg width="16px" height="16px" viewBox="0 0 16 16" version="1.1" xmlns="http://www.w3.org/2000/svg" xmlns:xlink="http://www.w3.org/1999/xlink">
    <!-- Generator: Sketch 3.8.3 (29802) - http://www.bohemiancoding.com/sketch -->
    <title>slack</title>
    <desc>Created with Sketch.</desc>
    <defs></defs>
    <g id="Page-2" stroke="none" stroke-width="1" fill="none" fill-rule="evenodd">
        <g id="main" transform="translate(-1158.000000, -782.000000)">
            <g id="Group-6" transform="translate(650.000000, 280.000000)">
                <g id="frontend-meetup" transform="translate(330.000000, 0.000000)">
                    <g id="Group-4" transform="translate(96.000000, 502.000000)">
                        <g id="slack" transform="translate(82.000000, 0.000000)">
                            <g id="Layer_1">
                                <g id="Group">
                                    <g id="Shape">
                                        <path d="M1.40508108,8.46585034 C0.811135135,8.47042177 0.308,8.11406803 0.122486486,7.55787755 C0.115351351,7.53632653 0.109189189,7.51542857 0.103243243,7.49442177 C-0.0989189189,6.78214966 0.293081081,6.0370068 0.995675676,5.79842177 L12.2648649,1.99727891 C12.4018378,1.95776871 12.5397838,1.93763265 12.6764324,1.9367619 C13.2861622,1.93197279 13.8031351,2.29616327 13.9931892,2.86410884 L14.0100541,2.91896599 C14.2208649,3.66084354 13.6970811,4.32304762 13.0695135,4.53529252 C13.0690811,4.53561905 12.9549189,4.57447619 1.86281081,8.38737415 C1.71286486,8.43863946 1.55902703,8.46454422 1.40508108,8.46585034 L1.40508108,8.46585034 L1.40508108,8.46585034 Z" fill="#70CADB"></path>
                                        <path d="M3.28345946,14.0457143 C2.68486486,14.050068 2.18,13.6987211 1.99664865,13.1504762 C1.98972973,13.1295782 1.98313514,13.1085714 1.97718919,13.0874558 C1.77221622,12.3666939 2.16378378,11.6137143 2.86875676,11.3748027 L14.1383784,7.53882993 C14.284,7.48985034 14.4343784,7.46481633 14.5856216,7.46340136 C15.1858378,7.45882993 15.7131892,7.82802721 15.8992432,8.38247619 L15.9165405,8.44016327 C16.0254054,8.82340136 15.9610811,9.25409524 15.7446486,9.59401361 C15.5833514,9.8467483 15.0745946,10.0692245 15.0745946,10.0692245 L3.76216216,13.9635374 C3.60454054,14.0165442 3.44378378,14.044517 3.28345946,14.045932 L3.28345946,14.0457143 L3.28345946,14.0457143 Z" fill="#E01765"></path>
                                        <path d="M12.6646486,14.0699864 C12.0635676,14.0746667 11.5313514,13.6928435 11.3397838,13.1205442 L7.5787027,1.87265306 L7.55989189,1.80952381 C7.35610811,1.0922449 7.748,0.344054422 8.45037838,0.105687075 C8.59091892,0.058122449 8.73621622,0.0333061224 8.88248649,0.032 C9.09978378,0.0303673469 9.31005405,0.0796734694 9.50810811,0.178176871 C9.83924324,0.344163265 10.0869189,0.629877551 10.2052973,0.982748299 L13.9660541,12.2296599 L13.976973,12.2657959 C14.1882162,13.0105034 13.7971892,13.7591293 13.0948108,13.9974966 C12.9556757,14.0441905 12.8108108,14.0686803 12.6646486,14.0699864 L12.6646486,14.0699864 L12.6646486,14.0699864 Z" fill="#E8A723"></path>
                                        <path d="M7.07405405,15.964517 C6.47297297,15.9691973 5.94032432,15.5873741 5.74864865,15.0143129 L1.98854054,3.76685714 C1.98205405,3.74617687 1.97556757,3.7254966 1.9692973,3.70427211 C1.76605405,2.98721088 2.15675676,2.23891156 2.85891892,2.00032653 C2.99891892,1.95352381 3.14367568,1.92881633 3.28972973,1.92761905 C3.89091892,1.92282993 4.42324324,2.30454422 4.61481081,2.87706122 L8.37502703,14.1249524 C8.38205405,14.1445442 8.38843243,14.1662041 8.39416216,14.1868844 C8.59783784,14.9044898 8.20691892,15.6532245 7.50367568,15.8918095 C7.364,15.9387211 7.21945946,15.9632109 7.07362162,15.9644082 L7.07405405,15.9644082 L7.07405405,15.964517 Z" fill="#3EB890"></path>
                                        <polygon fill="#CC2027" points="10.8104865 11.5369796 13.432973 10.6342313 12.5756757 8.07096599 9.95016216 8.9642449"></polygon>
                                        <polygon fill="#361238" points="5.22854054 13.4585034 7.85081081 12.5558639 6.98702703 9.9730068 4.36216216 10.8666122"></polygon>
                                        <polygon fill="#65863A" points="8.94345946 5.9537415 11.5661622 5.05219048 10.7189189 2.51885714 8.09135135 3.40517007"></polygon>
                                        <polygon fill="#1A937D" points="3.36086486 7.87265306 5.98356757 6.97110204 5.12594595 4.40544218 2.49837838 5.29164626 3.36086486 7.87265306"></polygon>
                                    </g>
                                </g>
                            </g>
                        </g>
                    </g>
                </g>
            </g>
        </g>
    </g>
</svg>