<?xml version="1.0" encoding="UTF-8" standalone="no"?>
<svg width="21px" height="12px" viewBox="0 0 21 12" version="1.1" xmlns="http://www.w3.org/2000/svg" xmlns:xlink="http://www.w3.org/1999/xlink">
    <!-- Generator: Sketch 3.8.3 (29802) - http://www.bohemiancoding.com/sketch -->
    <title>Group 4</title>
    <desc>Created with Sketch.</desc>
    <defs></defs>
    <g id="Page-2" stroke="none" stroke-width="1" fill="none" fill-rule="evenodd">
        <g id="main" transform="translate(-785.000000, -785.000000)" fill="#45668E">
            <g id="Group-6" transform="translate(650.000000, 280.000000)">
                <g id="beerjs">
                    <g id="Group-4" transform="translate(135.000000, 505.000000)">
                        <g id="Group-3">
                            <path d="M20.9672046,0.866678268 C21.1348264,1.33391508 20.5882416,2.40708355 19.3274336,4.08621585 C19.1525239,4.31983426 18.9156704,4.63010405 18.6168662,5.01703454 C18.0484094,5.74709206 17.7204585,6.22527257 17.6330036,6.4515904 C17.5091092,6.75091398 17.5601238,7.04658285 17.7860489,7.33860586 C17.9099434,7.49191794 18.2050992,7.79123703 18.6715252,8.23657212 L18.6824571,8.23657212 L18.6933889,8.24752293 L18.7043207,8.25847374 L18.7261843,8.28037535 C19.7537792,9.23675071 20.4497639,10.0434522 20.8141593,10.7005039 C20.836023,10.7370068 20.8597084,10.7826347 20.885216,10.837389 C20.9107237,10.8921434 20.936231,10.9888745 20.9617387,11.1275855 C20.9872464,11.2662964 20.9854244,11.3904043 20.9562728,11.4999129 C20.9271211,11.6094216 20.8360237,11.709803 20.6829776,11.8010602 C20.5299316,11.8923173 20.3149415,11.9379453 20.038001,11.9379453 L17.2394586,11.9817485 C17.0645488,12.0182514 16.8604905,12.0000002 16.6272775,11.9269945 C16.3940644,11.8539887 16.2045817,11.7736836 16.0588235,11.6860767 L15.8401874,11.554667 C15.6215502,11.4013549 15.3664773,11.16774 15.074961,10.8538153 C14.7834447,10.5398905 14.5338376,10.2569975 14.3261322,10.0051276 C14.1184269,9.75325778 13.896149,9.54154428 13.659292,9.36998076 C13.422435,9.19841724 13.2165548,9.14183863 13.041645,9.20024323 C13.0197813,9.20754381 12.9906301,9.22031962 12.9541905,9.23857106 C12.917751,9.2568225 12.8558047,9.30975088 12.7683498,9.39735778 C12.6808949,9.48496468 12.6025511,9.59264655 12.533316,9.72040662 C12.4640809,9.84816668 12.4021346,10.0379788 12.3474753,10.2898486 C12.292816,10.5417185 12.2691306,10.8246115 12.2764185,11.1385363 C12.2764185,11.2480449 12.2636649,11.3484263 12.2381572,11.4396835 C12.2126495,11.5309407 12.1853203,11.59847 12.1561687,11.6422734 L12.1124414,11.6970275 C11.9812591,11.8357384 11.7881325,11.9160435 11.5330557,11.9379453 L10.275898,11.9379453 C9.75845655,11.9671476 9.22644729,11.9069187 8.67985424,11.7572569 C8.13326119,11.6075951 7.65408847,11.4141328 7.24232171,11.1768641 C6.83055494,10.9395954 6.45523334,10.69868 6.11634565,10.4541108 C5.77745796,10.2095415 5.52056308,9.9996531 5.34565331,9.82443929 L5.07235815,9.5616199 C4.99947907,9.48861415 4.89927185,9.37910716 4.77173347,9.23309566 C4.64419509,9.08708415 4.38365631,8.75491296 3.99010932,8.23657212 C3.59656232,7.71823128 3.21030903,7.16704612 2.83133784,6.5830001 C2.45236666,5.99895408 2.00598903,5.22875494 1.49219157,4.27237959 C0.978394099,3.31600423 0.502865279,2.32314089 0.0655908381,1.29375978 C0.0218633941,1.17695058 0,1.07839429 0,0.998087965 C0,0.917781638 0.010931697,0.859377912 0.0327954191,0.822875036 L0.0765226445,0.757170187 C0.185841255,0.618459258 0.393543498,0.549104833 0.699635606,0.549104833 L3.69495055,0.527203217 C3.78240543,0.541804367 3.86621511,0.565530881 3.94638209,0.59838347 C4.02654907,0.631236058 4.08485146,0.662263038 4.12129099,0.691465339 L4.17595003,0.724317763 C4.29255654,0.80462409 4.38001012,0.921431542 4.43831338,1.07474362 C4.58407153,1.43977238 4.75169088,1.81757149 4.94117647,2.20815226 C5.13066206,2.59873304 5.28006192,2.89622701 5.38938053,3.10064312 L5.56428943,3.41821656 C5.77563875,3.85625107 5.97969709,4.23587529 6.17647059,4.5571006 C6.37324409,4.87832591 6.54997319,5.12836686 6.7066632,5.30723095 C6.8633532,5.48609505 7.01457501,5.62662901 7.16033316,5.72883707 C7.30609131,5.83104512 7.42998387,5.88214838 7.53201458,5.88214838 C7.63404528,5.88214838 7.73243055,5.86389721 7.82717335,5.82739434 C7.84174916,5.82009376 7.85996866,5.8018426 7.88183238,5.7726403 C7.9036961,5.743438 7.94742289,5.66313287 8.01301406,5.53172252 C8.07860522,5.40031217 8.12779786,5.22875122 8.16059344,5.01703454 C8.19338902,4.80531786 8.22800606,4.50964899 8.2644456,4.13001908 C8.30088514,3.75038917 8.30088514,3.29411006 8.2644456,2.76116807 C8.24986979,2.46914506 8.2170747,2.20267806 8.16605934,1.96175908 C8.11504399,1.7208401 8.06402941,1.55292938 8.01301406,1.45802191 L7.94742322,1.32661221 C7.76522553,1.07839265 7.45549412,0.921432637 7.01821968,0.85572746 C6.92347688,0.84112631 6.94169638,0.753520721 7.07287871,0.592908066 C7.19677313,0.454197136 7.3352413,0.34469015 7.48828735,0.264383823 C7.87454644,0.0745688664 8.7454383,-0.0130367223 10.1009891,0.00156442814 C10.6985975,0.00886500337 11.1905238,0.0563180306 11.5767829,0.143924933 C11.7225411,0.18042781 11.8446117,0.229705953 11.9429984,0.291760843 C12.0413852,0.353815732 12.1160851,0.441421321 12.1671005,0.554580237 C12.2181158,0.667739153 12.2563768,0.784546605 12.2818844,0.905006096 C12.3073921,1.02546559 12.3201458,1.19155118 12.3201458,1.40326787 C12.3201458,1.61498455 12.3165019,1.81574735 12.309214,2.00556231 C12.301926,2.19537727 12.2928163,2.45271868 12.2818844,2.77759428 C12.2709526,3.10246988 12.2654867,3.40361409 12.2654867,3.68103595 C12.2654867,3.76134228 12.2618428,3.91465206 12.2545549,4.14096989 C12.247267,4.36728772 12.2454451,4.5424989 12.249089,4.66660868 C12.252733,4.79071846 12.2654866,4.93855289 12.2873503,5.11011641 C12.3092141,5.28167993 12.3511189,5.42403901 12.4130661,5.53719792 C12.4750133,5.65035684 12.5570011,5.73978754 12.6590318,5.80549272 C12.717335,5.82009387 12.7792813,5.8346948 12.8448725,5.84929595 C12.9104636,5.8638971 13.005205,5.82374454 13.1290994,5.72883707 C13.2529939,5.63392959 13.391462,5.50799655 13.5445081,5.35103419 C13.6975541,5.19407182 13.8870369,4.94950622 14.112962,4.61733004 C14.3388871,4.28515387 14.5866723,3.89275384 14.8563248,3.44011817 C15.2935993,2.68085835 15.6834965,1.85955595 16.0260281,0.976186349 C16.0551797,0.903180597 16.0916187,0.839301522 16.1353462,0.784547207 C16.1790736,0.729792893 16.2191565,0.691465448 16.255596,0.669563722 L16.2993233,0.636711298 C16.3138991,0.629410723 16.3321186,0.620285141 16.3539823,0.609334278 C16.375846,0.598383415 16.4232167,0.587432716 16.4960958,0.576481853 C16.5689749,0.565530991 16.6418528,0.563705874 16.7147319,0.571006449 L19.8630921,0.549104833 C20.1473205,0.512601957 20.3805301,0.521727539 20.5627277,0.576481853 C20.7449254,0.631236168 20.8578863,0.69146501 20.9016137,0.757170187 L20.9672046,0.866678268 Z" id=""></path>
                        </g>
                    </g>
                </g>
            </g>
        </g>
    </g>
</svg>