<?xml version="1.0" encoding="UTF-8" standalone="no"?>
<svg width="20px" height="15px" viewBox="0 0 20 15" version="1.1" xmlns="http://www.w3.org/2000/svg" xmlns:xlink="http://www.w3.org/1999/xlink">
    <!-- Generator: Sketch 3.8.3 (29802) - http://www.bohemiancoding.com/sketch -->
    <title>Group 3 Copy</title>
    <desc>Created with Sketch.</desc>
    <defs></defs>
    <g id="Page-2" stroke="none" stroke-width="1" fill="none" fill-rule="evenodd">
        <g id="main" transform="translate(-1118.000000, -783.000000)" fill="#CD201F">
            <g id="Group-6" transform="translate(650.000000, 280.000000)">
                <g id="frontend-meetup" transform="translate(330.000000, 0.000000)">
                    <g id="Group-4" transform="translate(96.000000, 502.000000)">
                        <g id="Group-3-Copy" transform="translate(42.000000, 1.000000)">
                            <path d="M14.2857143,7.85714286 C14.2857143,7.58184386 14.1741083,7.38095301 13.9508929,7.25446429 L8.23660714,3.68303571 C8.00595123,3.53422545 7.76413817,3.52678504 7.51116071,3.66071429 C7.26562377,3.79464353 7.14285714,4.00297478 7.14285714,4.28571429 L7.14285714,11.4285714 C7.14285714,11.7113109 7.26562377,11.9196422 7.51116071,12.0535714 C7.63020893,12.1130955 7.74553516,12.1428571 7.85714286,12.1428571 C8.00595313,12.1428571 8.13243996,12.1056551 8.23660714,12.03125 L13.9508929,8.45982143 C14.1741083,8.3333327 14.2857143,8.13244185 14.2857143,7.85714286 L14.2857143,7.85714286 Z M20,7.85714286 C20,8.57143214 19.9962798,9.12946228 19.9888393,9.53125 C19.9813988,9.93303772 19.9497771,10.4408451 19.8939732,11.0546875 C19.8381694,11.6685299 19.7544648,12.2172595 19.6428571,12.7008929 C19.5238089,13.2440503 19.2671151,13.701635 18.8727679,14.0736607 C18.4784206,14.4456864 18.0171157,14.661458 17.4888393,14.7209821 C15.8370453,14.906995 13.3407905,15 10,15 C6.65920949,15 4.16295469,14.906995 2.51116071,14.7209821 C1.98288426,14.661458 1.51971925,14.4456864 1.12165179,14.0736607 C0.723584319,13.701635 0.465030357,13.2440503 0.345982143,12.7008929 C0.241814955,12.2172595 0.161830636,11.6685299 0.106026786,11.0546875 C0.0502229353,10.4408451 0.0186012277,9.93303772 0.0111607143,9.53125 C0.00372020089,9.12946228 0,8.57143214 0,7.85714286 C0,7.14285357 0.00372020089,6.58482344 0.0111607143,6.18303571 C0.0186012277,5.78124799 0.0502229353,5.27344057 0.106026786,4.65959821 C0.161830636,4.04575586 0.245535156,3.49702623 0.357142857,3.01339286 C0.476191071,2.47023538 0.732884933,2.01265067 1.12723214,1.640625 C1.52157935,1.26859933 1.98288426,1.05282768 2.51116071,0.993303571 C4.16295469,0.807290737 6.65920949,0.714285714 10,0.714285714 C13.3407905,0.714285714 15.8370453,0.807290737 17.4888393,0.993303571 C18.0171157,1.05282768 18.4802807,1.26859933 18.8783482,1.640625 C19.2764157,2.01265067 19.5349696,2.47023538 19.6540179,3.01339286 C19.758185,3.49702623 19.8381694,4.04575586 19.8939732,4.65959821 C19.9497771,5.27344057 19.9813988,5.78124799 19.9888393,6.18303571 C19.9962798,6.58482344 20,7.14285357 20,7.85714286 L20,7.85714286 Z" id=""></path>
                        </g>
                    </g>
                </g>
            </g>
        </g>
    </g>
</svg>